<?xml version="1.0" encoding="UTF-8" standalone="no"?>
<!-- Created with Inkscape (http://www.inkscape.org/) -->

<svg
   version="1.1"
   id="svg1"
   width="570.47278"
   height="573.01776"
   viewBox="0 0 570.47278 573.01776"
   sodipodi:docname="logo-mid.png"
   inkscape:version="1.3 (0e150ed, 2023-07-21)"
   xmlns:inkscape="http://www.inkscape.org/namespaces/inkscape"
   xmlns:sodipodi="http://sodipodi.sourceforge.net/DTD/sodipodi-0.dtd"
   xmlns="http://www.w3.org/2000/svg"
   xmlns:svg="http://www.w3.org/2000/svg">
  <defs
     id="defs1">
    <filter
       inkscape:label="Fast Crop"
       inkscape:auto-region="false"
       inkscape:menu="Fill and Transparency"
       inkscape:menu-tooltip="Does not filter but adds a filter region"
       style="color-interpolation-filters:sRGB"
       id="filter1">
      <feColorMatrix
         type="saturate"
         values="1"
         id="feColorMatrix1" />
    </filter>
  </defs>
  <sodipodi:namedview
     id="namedview1"
     pagecolor="#ffffff"
     bordercolor="#000000"
     borderopacity="0.25"
     inkscape:showpageshadow="2"
     inkscape:pageopacity="0.0"
     inkscape:pagecheckerboard="0"
     inkscape:deskcolor="#d1d1d1"
     inkscape:zoom="0.65186406"
     inkscape:cx="257.72244"
     inkscape:cy="348.23211"
     inkscape:window-width="1472"
     inkscape:window-height="891"
     inkscape:window-x="0"
     inkscape:window-y="37"
     inkscape:window-maximized="0"
     inkscape:current-layer="g1" />
  <g
     inkscape:groupmode="layer"
     inkscape:label="Image"
     id="g1"
     transform="translate(-226.57972,-143.39092)">
    <path
       style="display:inline;fill:#009252;fill-opacity:1;filter:url(#filter1)"
       d="m 521.13807,672.86383 c -12.31065,-6.16275 -11.65729,-22.88989 1.15282,-29.51426 1.55786,-0.80559 6.29221,-2.08947 10.52079,-2.85306 11.07045,-1.99907 21.62144,-4.89745 38.68832,-10.62776 31.24144,-10.48951 53.09858,-20.86282 62.76329,-29.78722 5.31425,-4.90717 10.92033,-13.05881 9.00703,-13.09684 -0.42367,-0.008 -0.0953,-0.44366 0.72968,-0.9672 1.10923,-0.70391 1.481,-2.74757 1.42705,-7.84472 -0.059,-5.5722 -0.58176,-7.76105 -2.72863,-11.42441 -4.87784,-8.32339 -16.55108,-13.73226 -26.48383,-12.27145 -5.80167,0.85325 -18.87263,5.72313 -43.71459,16.28686 -73.87384,31.4139 -114.2445,47.04249 -134,51.87509 -16.81619,4.11359 -44.40785,5.61769 -59.80845,3.26034 -3.95535,-0.60544 -10.78006,-2.47711 -15.16602,-4.15925 -17.73086,-6.80032 -24.94587,-21.52062 -15.38369,-31.3863 4.92481,-5.0811 7.76986,-5.62101 20.94476,-3.97472 7.71931,0.96457 19.1813,1.34405 35.4134,1.17243 22.49102,-0.23779 24.50299,-0.41236 32,-2.77647 8.72611,-2.7517 32.88862,-12.08029 49.5,-19.11081 22.72868,-9.61957 49.893,-21.02758 57.5,-24.14787 9.07469,-3.72232 29.09783,-12.14652 41,-17.24964 20.99223,-9.00056 18.67694,-8.59527 51.58434,-9.0297 27.33366,-0.36084 30.25387,-0.23154 38.38485,1.69956 17.63948,4.18937 28.86525,11.89849 34.75024,23.86418 2.82724,5.74851 3.28057,7.71174 3.28057,14.20714 0,6.50147 -0.45201,8.45489 -3.29023,14.21901 -3.94109,8.00393 -9.33651,15.32507 -20.56001,27.89822 -15.86969,17.77807 -26.81329,27.68947 -43.14976,39.07988 -30.29439,21.12241 -78.80496,38.1814 -110,38.68207 -8.48627,0.1362 -10.66028,-0.17004 -14.36193,-2.0231 z M 317.82656,556.88873 c -12.12378,-1.00516 -20.17536,-5.90168 -24.02878,-14.61298 -3.5598,-8.04751 -0.0936,-16.91278 8.20367,-20.98194 4.45916,-2.18688 5.01957,-2.20925 63.99855,-2.55493 l 59.5,-0.34874 8,-2.75439 c 4.4,-1.51492 11.825,-4.3509 16.5,-6.30219 4.675,-1.95129 13.225,-5.51341 19,-7.91582 5.775,-2.40242 20.625,-8.70103 33,-13.99692 57.66977,-24.67982 82.93444,-35.31504 88,-37.0438 5.17103,-1.76475 9.62703,-1.87702 74.5,-1.87702 h 69 l 4.41061,2.5 c 14.4582,8.19513 14.96853,25.91939 0.95219,33.07 -3.75531,1.91581 -6.00811,1.98104 -67.1707,1.94501 -59.08062,-0.0348 -63.78104,0.0896 -70.75025,1.87198 -7.84467,2.00633 -47.68355,18.36392 -98.44185,40.41959 -16.78974,7.29554 -54.9387,22.76334 -61.70242,25.01775 -13.09104,4.36336 -20.63319,4.85143 -69.75151,4.51372 -25.05034,-0.17222 -48.99912,-0.59942 -53.21951,-0.94932 z m -27.85734,-70.22868 c -5.55613,-1.52007 -8.02388,-3.19548 -11.91079,-8.08653 -7.19407,-9.05256 -4.20016,-22.15168 6.25656,-27.37402 4.2026,-2.09888 5.3793,-2.14293 69.72987,-2.61022 73.48853,-0.53366 69.2771,-0.13745 89.45514,-8.41581 14.19356,-5.82313 35.31081,-14.65635 40.97841,-17.14101 11.26601,-4.939 19.88426,-8.65625 28.02159,-12.08636 4.95,-2.08656 17.1,-7.22797 27,-11.42535 26.47133,-11.22326 39.08878,-16.1271 47.5,-18.46111 7.30753,-2.02775 9.25788,-2.07446 76,-1.8204 63.52899,0.24184 68.79028,0.39161 72.5,2.06381 9.73108,4.3864 15.83253,15.03461 13.52506,23.60387 -1.41913,5.27025 -4.2222,8.52601 -9.56898,11.11434 -4.51318,2.18479 -4.88434,2.19768 -73.32648,2.54507 -42.33287,0.21488 -70.56291,0.74641 -73.39907,1.38201 -6.4722,1.45045 -12.81879,3.97104 -49.23053,19.55225 -29.24292,12.51354 -82.49925,35.05552 -94.24855,39.89288 -20.93284,8.61836 -14.66724,8.03357 -88.75145,8.28349 -49.98831,0.16863 -67.09917,-0.0781 -70.53078,-1.01691 z m 0.23567,-68.76585 c -4.85617,-1.43655 -12.79883,-9.56063 -14.07275,-14.3942 -1.61056,-6.11082 0.69335,-13.95107 5.2349,-17.81446 6.05806,-5.15346 4.95363,-5.07113 65.63296,-4.89237 57.88117,0.17051 60.85712,0.0127 74.5,-3.95153 7.20748,-2.09427 41.15131,-15.90372 68.5,-27.86801 17.32117,-7.57754 71.15823,-30.01186 83.5,-34.7951 16.66865,-6.46019 16.16117,-6.42177 78,-5.90607 55.27174,0.46094 56.08453,0.49689 62.5,2.76457 3.575,1.26366 7.78148,3.23478 9.34773,4.38027 4.50631,3.29571 8.03689,10.16224 8.03689,15.63073 0,5.36305 -1.76629,8.61583 -6.73735,12.40744 l -3.39387,2.58863 -61.52633,0.002 c -52.96512,0.002 -62.27082,0.2205 -66.8767,1.57197 -6.45829,1.89501 -37.30342,14.33012 -51.85037,20.90331 -5.775,2.60949 -16.125,7.10986 -23,10.00082 -6.875,2.89096 -20.15,8.50329 -29.5,12.47184 -33.84971,14.36729 -52.16353,21.82148 -60.5,24.62503 l -8.5,2.85855 -63,0.19565 c -38.60238,0.11988 -64.27608,-0.18185 -66.29511,-0.77911 z M 341.5,348.62718 c -9.79627,-3.19545 -13.10796,-5.11161 -19.69778,-11.39724 -12.15186,-11.59092 -13.16042,-27.80027 -2.7917,-44.86754 11.64425,-19.16682 37.98876,-45.94816 59.23111,-60.21324 38.86479,-26.09926 108.09478,-47.09203 126.02616,-38.21522 5.51115,2.72826 7.94553,6.23068 8.52542,12.2658 0.57676,6.00241 -1.70387,10.79162 -6.78916,14.25695 -2.09553,1.42798 -9.13161,3.79074 -17.50405,5.87798 -23.21327,5.78702 -37.23723,10.71428 -75.09832,26.38547 -17.45666,7.22553 -28.39369,15.47634 -33.00283,24.89707 -2.24259,4.5837 -2.56878,6.36969 -2.23669,12.24679 0.31552,5.58402 0.93604,7.6702 3.29313,11.07148 5.36305,7.73889 15.79369,11.73292 26.2127,10.03718 6.40704,-1.04277 14.36064,-4.25219 74.33201,-29.99421 52.25973,-22.43189 80.12001,-32.99843 100.5,-38.11651 10.35011,-2.59926 14.47483,-3.09045 30,-3.57255 34.67468,-1.07675 54.25264,3.65334 63.0928,15.24339 3.92267,5.14289 4.46061,12.67965 1.24287,17.41315 -4.71695,6.93897 -9.49411,8.19226 -23.33567,6.12211 -10.62114,-1.5885 -43.71419,-2.14309 -55,-0.92173 -4.97281,0.53817 -13.02719,2.34539 -18,4.0388 -10.80231,3.67855 -42.10264,16.3968 -63.5,25.80192 -14.47894,6.36417 -41.12329,17.75282 -78.22231,33.43474 -24.52209,10.36559 -25.79337,10.58625 -60.68765,10.53349 -28.03753,-0.0424 -29.95731,-0.16454 -36.59004,-2.32808 z"
       id="path1"
       transform="matrix(1,0,0,0.98854184,0,1.4752621)"
       sodipodi:nodetypes="ssssscsssssssssssssssssssssssssssscsssssscsssssssssssssssssssssssssssssssssssssssccssssscssssssssssssssssssssssssssss" />
  </g>
</svg>
